<svg version="1" xmlns="http://www.w3.org/2000/svg" width="1000" height="1000" viewBox="0 0 1000 1000"><path fill="#aeb9bf" d="M650 674c0 26 5 52 25 72 27 27 87 50 122 64 55 19 151 56 203 98v54l-12-11c-27-29-95-63-205-104-66-24-112-48-137-73-24-25-36-58-36-101 0-19 9-43 26-72 18-29 29-48 33-59 7-23 17-68 28-135 7-35 12-66 14-93 2-15 0-31-5-50-6-19-15-39-28-60-14-21-36-39-68-52-31-13-67-20-109-20-43 0-79 7-110 20-32 13-54 31-68 52-13 21-22 41-28 60-5 19-7 35-5 50 2 27 7 58 13 93 12 67 21 112 29 135 4 11 15 30 33 59s26 53 26 72c1 42-11 76-36 101-26 25-71 50-137 73-68 25-121 48-160 71a218 218 0 0 0-58 45v-54c12-10 26-18 38-25 52-31 110-54 166-75 36-13 94-35 122-63 20-20 26-45 26-72-1-16-13-39-21-52-12-19-30-46-36-67-7-18-11-37-15-56a1991 1991 0 0 1-30-181c-2-22 1-44 7-65 7-25 19-48 33-70 19-32 51-53 85-68 39-17 83-23 126-23 42 0 86 6 125 23 34 15 66 36 85 68 14 22 26 45 33 70 6 21 9 43 7 65a2021 2021 0 0 1-45 237v1c-8 21-23 46-35 66-8 13-21 36-21 52z"/></svg>
