<svg xmlns="http://www.w3.org/2000/svg" width="1000" height="1000"><path fill="#aeb9bf" d="M500 76c79.1 0 155 23.4 203.2 89.5 64.1 88 55 216.5 24.1 315A542.8 542.8 0 0 1 670 606.2c-8.2 13-20.7 35.5-20.9 51.2-.3 27 5.6 52.6 25.3 72.2 28.2 28.2 84.9 50.2 122.3 63.7 63.4 22.8 152.1 55.2 203.4 100.4V945c-69.8-58-128.5-82.3-217-114.2-44-15.8-103.8-39.8-137-73-27.5-27.5-37.4-62.9-37-101 .3-24.5 14.2-51.5 27-72 103.5-164.8 134.8-469-136-469S260.5 420.1 364 585c12.8 20.5 26.7 47.5 27 72 .4 38.1-9.5 73.5-37 101-33.2 33.2-93 57.2-137 73-86.2 31-146.4 55.5-217 114.2v-51.4c49.7-43.8 141.1-78 203.4-100.4 37.4-13.5 94.1-35.5 122.3-63.7 19.7-19.6 25.6-45.1 25.3-72.2-.2-15.7-12.7-38.1-20.9-51.2a542.8 542.8 0 0 1-57.4-125.7c-31-98.5-40-227 24.1-315C345.1 99.5 420.8 76 500 76z"/></svg>